<svg width="42" height="36" viewBox="0 0 42 36" fill="none" xmlns="http://www.w3.org/2000/svg">
<mask id="path-1-inside-1_830_1125" fill="white">
<path d="M30.969 20.235C32.0018 20.3098 32.79 21.2092 32.6065 22.2283C32.0726 25.1952 30.7656 27.973 28.8083 30.2601C26.4472 33.0192 23.2692 34.9132 19.7584 35.6536C16.2476 36.394 12.5965 35.9403 9.36113 34.3614C6.1258 32.7826 3.4836 30.1652 1.837 26.908C0.190404 23.6508 -0.370335 19.9323 0.240197 16.3189C0.850729 12.7056 2.59907 9.39534 5.2189 6.89252C7.83873 4.3897 11.1865 2.83145 14.7521 2.45515C17.6977 2.14429 20.6586 2.65406 23.3267 3.91351C24.2672 4.35744 24.5455 5.52365 24.0147 6.41799C23.4687 7.33819 22.2767 7.61521 21.2914 7.19779C19.3558 6.37777 17.2417 6.05706 15.1378 6.2791C12.3872 6.56938 9.80474 7.77142 7.78379 9.7021C5.76284 11.6328 4.41417 14.1863 3.9432 16.9737C3.47223 19.7611 3.90479 22.6295 5.17498 25.1422C6.44517 27.6548 8.48338 29.6738 10.9791 30.8917C13.4749 32.1097 16.2914 32.4597 18.9996 31.8886C21.7079 31.3174 24.1594 29.8564 25.9808 27.728C27.3952 26.0751 28.3695 24.0901 28.8256 21.9641C29.0438 20.947 29.9315 20.1599 30.969 20.235Z"/>
</mask>
<path d="M30.969 20.235C32.0018 20.3098 32.79 21.2092 32.6065 22.2283C32.0726 25.1952 30.7656 27.973 28.8083 30.2601C26.4472 33.0192 23.2692 34.9132 19.7584 35.6536C16.2476 36.394 12.5965 35.9403 9.36113 34.3614C6.1258 32.7826 3.4836 30.1652 1.837 26.908C0.190404 23.6508 -0.370335 19.9323 0.240197 16.3189C0.850729 12.7056 2.59907 9.39534 5.2189 6.89252C7.83873 4.3897 11.1865 2.83145 14.7521 2.45515C17.6977 2.14429 20.6586 2.65406 23.3267 3.91351C24.2672 4.35744 24.5455 5.52365 24.0147 6.41799C23.4687 7.33819 22.2767 7.61521 21.2914 7.19779C19.3558 6.37777 17.2417 6.05706 15.1378 6.2791C12.3872 6.56938 9.80474 7.77142 7.78379 9.7021C5.76284 11.6328 4.41417 14.1863 3.9432 16.9737C3.47223 19.7611 3.90479 22.6295 5.17498 25.1422C6.44517 27.6548 8.48338 29.6738 10.9791 30.8917C13.4749 32.1097 16.2914 32.4597 18.9996 31.8886C21.7079 31.3174 24.1594 29.8564 25.9808 27.728C27.3952 26.0751 28.3695 24.0901 28.8256 21.9641C29.0438 20.947 29.9315 20.1599 30.969 20.235Z" stroke="white" stroke-width="8" mask="url(#path-1-inside-1_830_1125)"/>
<path d="M23.2663 15.45L30.0229 7.52447L33.1729 12.6421L23.2663 15.45Z" fill="white" stroke="white" stroke-width="4"/>
</svg>
