<svg width="43" height="44" viewBox="0 0 43 44" fill="none" xmlns="http://www.w3.org/2000/svg">
<path fill-rule="evenodd" clip-rule="evenodd" d="M43 21.9951C43 33.8692 33.3741 43.4951 21.5 43.4951C9.62588 43.4951 0 33.8692 0 21.9951C0 10.121 9.62588 0.495117 21.5 0.495117C33.3741 0.495117 43 10.121 43 21.9951ZM21.4973 9.09473C22.9221 9.09473 24.0773 10.2498 24.0773 11.6747V19.4145H31.8177C33.2425 19.4145 34.3977 20.5696 34.3977 21.9945C34.3977 23.4194 33.2425 24.5745 31.8177 24.5745H24.0773V32.3147C24.0773 33.7396 22.9221 34.8947 21.4973 34.8947C20.0724 34.8947 18.9173 33.7396 18.9173 32.3147V24.5745H11.1777C9.75276 24.5745 8.59766 23.4194 8.59766 21.9945C8.59766 20.5696 9.75276 19.4145 11.1777 19.4145H18.9173V11.6747C18.9173 10.2498 20.0724 9.09473 21.4973 9.09473Z" fill="white"/>
</svg>
