<svg width="35" height="36" viewBox="0 0 35 36" fill="none" xmlns="http://www.w3.org/2000/svg">
<path d="M12.2493 24.008C12.2493 23.0618 13.0329 22.2948 13.9995 22.2948H15.7498C16.7164 22.2948 17.5 23.0618 17.5 24.008V25.7211C17.5 26.6673 16.7164 27.4343 15.7498 27.4343H13.9995C13.0329 27.4343 12.2493 26.6673 12.2493 25.7211V24.008Z" fill="white"/>
<path d="M9.62391 12.016C7.20733 12.016 5.24831 13.9335 5.24831 16.2988V20.3676H10.0078C10.3285 19.9759 10.8214 19.7251 11.3742 19.7251H23.6258C24.1786 19.7251 24.6715 19.9759 24.9922 20.3676H29.7517V16.2988C29.7517 13.9335 27.7927 12.016 25.3761 12.016H9.62391Z" fill="white"/>
<path fill-rule="evenodd" clip-rule="evenodd" d="M18.7946 0.560292C18.1003 -0.186763 16.8997 -0.186764 16.2054 0.560291L0.459048 17.5016C-0.563671 18.6019 0.23392 20.3676 1.75368 20.3676H5.24831V31.7171C5.24831 34.0825 7.20733 36 9.62391 36H25.3761C27.7927 36 29.7517 34.0825 29.7517 31.7171V20.3676H33.2463C34.7661 20.3676 35.5637 18.6019 34.541 17.5016L18.7946 0.560292ZM24.9922 20.3676H29.7517V16.2988C29.7517 13.9335 27.7927 12.016 25.3761 12.016H9.62391C7.20733 12.016 5.24831 13.9335 5.24831 16.2988V20.3676H10.0078C9.76759 20.6608 9.62391 21.0331 9.62391 21.4383V31.7171C9.62391 32.6633 10.4075 33.4303 11.3742 33.4303H23.6258C24.5925 33.4303 25.3761 32.6633 25.3761 31.7171V21.4383C25.3761 21.0331 25.2324 20.6608 24.9922 20.3676ZM13.9995 22.2948C13.0329 22.2948 12.2493 23.0618 12.2493 24.008V25.7211C12.2493 26.6673 13.0329 27.4343 13.9995 27.4343H15.7498C16.7164 27.4343 17.5 26.6673 17.5 25.7211V24.008C17.5 23.0618 16.7164 22.2948 15.7498 22.2948H13.9995Z" fill="white"/>
</svg>
