<svg width="33" height="28" viewBox="0 0 33 28" fill="none" xmlns="http://www.w3.org/2000/svg">
    <path d="M3 11.375C1.5475 11.375 0.375 12.5475 0.375 14C0.375 15.4525 1.5475 16.625 3 16.625C4.4525 16.625 5.625 15.4525 5.625 14C5.625 12.5475 4.4525 11.375 3 11.375ZM3 0.875C1.5475 0.875 0.375 2.0475 0.375 3.5C0.375 4.9525 1.5475 6.125 3 6.125C4.4525 6.125 5.625 4.9525 5.625 3.5C5.625 2.0475 4.4525 0.875 3 0.875ZM3 21.875C1.53947 21.875 0.375 23.0592 0.375 24.5C0.375 25.9408 1.55921 27.125 3 27.125C4.44079 27.125 5.625 25.9408 5.625 24.5C5.625 23.0592 4.46053 21.875 3 21.875ZM32.75 24.5C32.75 23.5335 31.9665 22.75 31 22.75H10C9.0335 22.75 8.25 23.5335 8.25 24.5C8.25 25.4665 9.0335 26.25 10 26.25H31C31.9665 26.25 32.75 25.4665 32.75 24.5ZM32.75 14C32.75 13.0335 31.9665 12.25 31 12.25H10C9.0335 12.25 8.25 13.0335 8.25 14C8.25 14.9665 9.0335 15.75 10 15.75H31C31.9665 15.75 32.75 14.9665 32.75 14ZM10 5.25H31C31.9665 5.25 32.75 4.4665 32.75 3.5C32.75 2.5335 31.9665 1.75 31 1.75H10C9.0335 1.75 8.25 2.5335 8.25 3.5C8.25 4.4665 9.0335 5.25 10 5.25Z" fill="white"/>
</svg>
